<?xml version="1.0" encoding="utf-8"?>
<!-- Generator: Adobe Illustrator 26.3.1, SVG Export Plug-In . SVG Version: 6.00 Build 0)  -->
<svg version="1.1" id="Layer_1" xmlns="http://www.w3.org/2000/svg" xmlns:xlink="http://www.w3.org/1999/xlink" x="0px" y="0px"
	 viewBox="0 0 509 507.1" style="enable-background:new 0 0 509 507.1;" xml:space="preserve">
<style type="text/css">
	.st0{fill:#0D4DAE;}
</style>
<path class="st0" d="M509,254.5C509,113.9,395.1,0,254.5,0S0,113.9,0,254.5c0,119.4,82.2,219.5,193,247V332.3h-52.5v-77.8H193V221
	c0-86.6,39.2-126.8,124.2-126.8c16.1,0,44,3.2,55.3,6.3V171c-6-0.6-16.4-0.9-29.4-0.9c-41.7,0-57.9,15.8-57.9,56.9v27.5h83.1
	l-14.3,77.8h-68.8v174.9C411.4,491.9,509,384.6,509,254.5z"/>
</svg>
