<?xml version="1.0" encoding="utf-8"?>
<!-- Generator: Adobe Illustrator 26.3.1, SVG Export Plug-In . SVG Version: 6.00 Build 0)  -->
<svg version="1.1" id="Layer_1" xmlns="http://www.w3.org/2000/svg" xmlns:xlink="http://www.w3.org/1999/xlink" x="0px" y="0px"
	 viewBox="0 0 576 504" style="enable-background:new 0 0 576 504;" xml:space="preserve">
<style type="text/css">
	.st0{fill:#0D4DAE;}
</style>
<path class="st0" d="M289.3,203.8c-26.6,0-48.2,21.5-48.3,48.1c0,26.6,21.5,48.2,48.1,48.3s48.2-21.5,48.3-48.1c0,0,0,0,0,0V252
	C337.4,225.4,315.9,203.9,289.3,203.8z"/>
<path class="st0" d="M349,128H227c-34.8,0-63,28.2-63,63v122c0.1,34.8,28.2,62.9,63,63h122c34.8-0.1,62.9-28.2,63-63V191
	C411.9,156.2,383.8,128.1,349,128z M289.3,327.2c-41.5,0-75.3-33.6-75.3-75.2c0-41.5,33.6-75.3,75.2-75.3
	c41.5,0,75.3,33.6,75.3,75.2v0.1C364.4,293.5,330.8,327.1,289.3,327.2z M368.9,189.7c-9.9,0-17.9-8-17.9-17.9s8-17.9,17.9-17.9
	s17.9,8,17.9,17.9c0,0,0,0,0,0C386.8,181.6,378.8,189.7,368.9,189.7z"/>
<path class="st0" d="M288,0C148.8,0,36,112.7,36,252s112.8,252,252,252s252-112.8,252-252S427.2,0,288,0z M440.7,313
	c-0.1,50.6-41.1,91.7-91.7,91.7H227c-50.6-0.1-91.7-41.1-91.7-91.7V191c0.1-50.6,41.1-91.7,91.7-91.7h122
	c50.6,0.1,91.7,41.1,91.7,91.7V313z"/>
</svg>
