<?xml version="1.0" encoding="utf-8"?>
<!-- Generator: Adobe Illustrator 26.3.1, SVG Export Plug-In . SVG Version: 6.00 Build 0)  -->
<svg version="1.1" id="Layer_1" xmlns="http://www.w3.org/2000/svg" xmlns:xlink="http://www.w3.org/1999/xlink" x="0px" y="0px"
	 viewBox="0 0 576 504" style="enable-background:new 0 0 576 504;" xml:space="preserve">
<style type="text/css">
	.st0{fill:#0D4DAE;}
</style>
<path class="st0" d="M288.7,0h-1.4C148.5,0,36,112.5,36,251.3v1.4C36,391.5,148.5,504,287.3,504h1.4C427.5,504,540,391.5,540,252.7
	v-1.4C540,112.5,427.5,0,288.7,0z M211.5,391.8h-59.7V202.9h59.7V391.8z M207.2,167.5c-6.7,6.2-15.1,9.2-25.3,9.2
	c-10.5,0-19-3.1-25.7-9.2c-6.5-5.8-10.1-14.2-9.9-22.9c-0.2-8.8,3.4-17.3,9.9-23.2c6.7-6.1,15.2-9.2,25.7-9.2
	c10.2,0,18.7,3.1,25.3,9.2c6.5,5.9,10.2,14.4,10,23.2C217.3,153.4,213.6,161.7,207.2,167.5z M429.8,388.5H373V287.4
	c0-12.5-3.2-22.1-9.7-29s-15.1-10.3-26-10.3c-10.9,0-19.6,3.4-26,10.3c-6.4,6.9-9.7,16.6-9.7,29v101.1h-57V202.4h57V227
	c6-8.4,14-15.1,23.3-19.5c9.8-4.8,20.8-7.2,33-7.2c21.8,0,39.2,7.1,52.2,21.2h0c13,14.1,19.5,33.5,19.5,58.2V388.5z"/>
</svg>
