<?xml version="1.0" encoding="utf-8"?>
<!-- Generator: Adobe Illustrator 26.3.1, SVG Export Plug-In . SVG Version: 6.00 Build 0)  -->
<svg version="1.1" id="Layer_1" xmlns="http://www.w3.org/2000/svg" xmlns:xlink="http://www.w3.org/1999/xlink" x="0px" y="0px"
	 viewBox="0 0 576 504" style="enable-background:new 0 0 576 504;" xml:space="preserve">
<style type="text/css">
	.st0{fill:#0D4DAE;}
</style>
<path class="st0" d="M293.2,121.2c-66.9-0.1-121.2,54-121.4,120.9c0,22.4,6.1,44.3,17.8,63.4l3.1,5.2l-12.1,45.3l45.5-12.2l5.1,3.1
	c57.6,34.2,132,15.3,166.2-42.3s15.3-132-42.3-166.2C336.5,127.1,315,121.2,293.2,121.2L293.2,121.2z M364.5,288.4
	c-4.5,11-15.7,18-27.1,20.2c-10.9,2.1-19.8-1.3-29.9-4.7c-9-3.1-17.6-7.2-25.7-12.2c-16-10-30-23-41.1-38.2
	c-3.4-4.6-6.6-9.4-9.5-14.4c-4-6.5-7.1-13.6-9.1-21c-0.7-3.1-1.1-6.3-1.2-9.5c-0.1-11.3,4.2-22.6,13.1-29.9c5.2-4.2,12.8-6,18.6-2.8
	c6.3,3.6,9.6,12.5,12.5,18.8c2.3,4.9,4.9,11.4,4,16.9s-5.3,10.2-8.8,14.3c-2.4,2.8-2.7,5.1-0.8,8.1c11,18.9,28.1,33.5,48.4,41.5
	c2.8,1.1,5.1,0.8,6.9-1.5c3.6-4.5,7.2-13.2,12.7-15.5c7.3-3,15.3,1.2,21.4,4.8c5.7,3.4,15.3,7.6,16.9,14.7
	C366.4,281.6,366,285.2,364.5,288.4z"/>
<path class="st0" d="M288,0C148.8,0,36,112.7,36,252s112.8,252,252,252s252-112.8,252-252S427.2,0,288,0z M293.2,392.2
	c-24.8,0-49.3-6.3-71.1-18.1l-81.5,21.8l21.7-81.1c-39.9-72.3-13.6-163.3,58.8-203.2s163.3-13.6,203.2,58.8s13.6,163.3-58.8,203.2
	C343.4,385.8,318.5,392.2,293.2,392.2L293.2,392.2z"/>
</svg>
