<svg id="Layer_1" data-name="Layer 1" xmlns="http://www.w3.org/2000/svg" viewBox="0 0 432 432"><defs><style>.cls-1{fill:#020202;}.cls-2,.cls-3{fill:#050505;}.cls-3{font-size:17.96px;font-family:ArialMT, Arial;letter-spacing:1.61em;}.cls-4{font-size:21.8px;font-family:MyriadPro-Regular, Myriad Pro;}</style></defs><path class="cls-1" d="M90.68,77.78l113-1.72L187.86,87.9l-70.76,10,19.74,7.28-17.92,26.12,9.42,34.72-18.53-33.81-9.72-16.7L99.79,200,114.67,165l-11.24,88.37,25.21,6.08-6.07,9.11,7.89,1.82-24.39,17.11,55.37-8L207,264.65l-1.52-10L234,240.88V223.65s46.46,15.19,18.22,74.71c-.3,0-35.84-26.73-35.84-26.73v26.73H92.2Z"/><path class="cls-1" d="M206.48,83.86l6,24.09s82.6-8.51,126.63,38.87c.31,0,0-37,0-37S278.26,68,206.48,83.86Z"/><path class="cls-1" d="M214.28,113.54l4.86,19s64.95-5.77,120.09,77.74c.17,0,0-46.46,0-46.46S300.53,106.06,214.28,113.54Z"/><path class="cls-1" d="M220.66,139.23l6,22.35s62,20.67,96.35,136.78h18.32v-65.9S309.74,158.16,220.66,139.23Z"/><path class="cls-1" d="M227.74,170.51l8.71,34.82s33.2,22.47,30.77,93c0-.3,35.63,0,35.63,0S297.59,218.29,227.74,170.51Z"/><path class="cls-1" d="M218.6,174.31a4.52,4.52,0,0,0,7.81,3.11l-2-7.42a4.39,4.39,0,0,0-1.31-.22A4.53,4.53,0,0,0,218.6,174.31Z"/><path class="cls-1" d="M200.44,97.27a6.4,6.4,0,0,0,6.41,6.4l-3.17-11.94A6.38,6.38,0,0,0,200.44,97.27Z"/><path class="cls-1" d="M205,123.74a6.37,6.37,0,0,0,8.77,5.94l-3.26-12.26A6.39,6.39,0,0,0,205,123.74Z"/><path class="cls-1" d="M212.18,151.65a6.4,6.4,0,0,0,8.95,5.88l-3.24-12.21A6.37,6.37,0,0,0,212.18,151.65Z"/><path class="cls-1" d="M198.49,100.76A9,9,0,0,1,203,89.1l-.75-2.82s-33,20.66-46.56,47.18a94.93,94.93,0,0,0-4.34,9.86Z"/><path class="cls-1" d="M202.42,124.6a8.36,8.36,0,0,1-.09-.86,9,9,0,0,1,7.48-8.9l-2.28-8.58c-.23,0-.45.07-.68.07a9,9,0,0,1-6.27-2.54L155.4,144.54Z"/><path class="cls-1" d="M209.66,153a7.84,7.84,0,0,1-.14-1.3,9,9,0,0,1,7.69-8.92l-2.79-10.49a8.87,8.87,0,0,1-10.93-4.14l-48.24,20.47Z"/><path class="cls-1" d="M216.94,172.75a6.39,6.39,0,0,1,6.19-4.85,6.48,6.48,0,0,1,.77.08l-2.09-7.89a8.84,8.84,0,0,1-3.23.62,9,9,0,0,1-8.45-5.89l-41.54-3.35Z"/><path class="cls-1" d="M227.74,182.45l-.8-3a6.35,6.35,0,0,1-10.18-4.77L163.06,151l-11.43-.93-3.44,1.46c-2.53,7.07-5,15-5.88,21.38l-2.23,15.38,15,17.21a69,69,0,0,0,7.69,5.67c.21-.2-9.11,24.7-9.11,24.7L164.78,247l-3.65,14.37,6.69,6.88L166,270.12l1.83,2.83,21.86-7.09-1.82-12.35,33.61-12.63,1.82-16.52-10.73-26.52ZM171.26,211.2,181,195.61l1.83,9.52Z"/><path class="cls-2" d="M91.68,312.93h16.44l14.43,23.47h1.29V312.93h14v43.43H121.72l-14.79-23.48h-1.29v23.48h-14Z"/><path class="cls-2" d="M236.1,356.36,224.52,340.9h-.93l-6,6.36v9.1H203.37V312.93h14.27v17.21h.93l15.67-17.21h15.92l-17.63,19.33,18.2,24.1Z"/><path class="cls-2" d="M286.05,350.62H267.43l-1.91,5.74H250.73l16-43.43h20.06l16,43.43H288ZM282.53,340,278,326.37H275.5L271,340Z"/><path class="cls-2" d="M341.32,324.87H325.71v31.49H311.38V324.87H295.77V312.93h45.55Z"/><path class="cls-2" d="M170.33,305.26a29.17,29.17,0,1,0,29.17,29.17A29.16,29.16,0,0,0,170.33,305.26Zm0,55a25.83,25.83,0,1,1,25.83-25.83A25.83,25.83,0,0,1,170.33,360.26Z"/><path class="cls-2" d="M165,354.36a20.63,20.63,0,0,1,0-39.86V311a24,24,0,0,0,0,46.91Z"/><path class="cls-2" d="M175.64,311v3.53a20.62,20.62,0,0,1,0,39.86v3.52a24,24,0,0,0,0-46.91Z"/><path class="cls-2" d="M157.65,337.59V323.77h8.14v13.61c0,3,1.34,4.93,4.54,4.93s4.61-1.9,4.61-4.93V323.77H183v13.76c0,8-4.25,11.54-12.68,11.54S157.65,345.49,157.65,337.59Z"/><text class="cls-3" transform="translate(93.63 381.27)">studios</text><text class="cls-4" transform="translate(327.97 344.92)">™</text></svg>